<svg width="460" height="74" viewBox="0 0 460 74" fill="none" xmlns="http://www.w3.org/2000/svg">
<path d="M9.53125 56.3438L9.90625 63.1875C9.90625 63.5625 9.875 64.25 9.8125 65.25C9.8125 66.25 9.4375 67.1562 8.6875 67.9688C8 68.7188 7.125 69.0938 6.0625 69.0938C5.0625 69.0938 4.28125 69.0625 3.71875 69C1.65625 69 0.625 68.0938 0.625 66.2812C0.625 64.7812 1.3125 58.75 2.6875 48.1875C4.0625 37.5625 4.9375 30.7188 5.3125 27.6562C5.6875 24.5938 6 22.0312 6.25 19.9688C6.5625 17.8438 6.78125 16.2812 6.90625 15.2812C7.03125 14.2812 7.21875 13.2812 7.46875 12.2812C7.71875 11.2812 8.09375 10.4688 8.59375 9.84375C9.53125 8.65625 11.3438 8.0625 14.0312 8.0625C18.5312 10.3125 23.1562 16.6875 27.9062 27.1875C31.2812 34.6875 33.5312 39.4375 34.6562 41.4375C35.7812 43.4375 36.875 44.8125 37.9375 45.5625L56.6875 12.9375C58 12 59 11.5312 59.6875 11.5312C61.6875 11.5312 63.2188 12.4375 64.2812 14.25C65.3438 16.0625 66.2188 18.2812 66.9062 20.9062C67.6562 23.4688 68.2812 26.3125 68.7812 29.4375C69.3438 32.5625 69.8125 35.8438 70.1875 39.2812C70.625 42.6562 71.0312 45.9688 71.4062 49.2188C72.2812 57.0312 72.9375 61.9375 73.375 63.9375C73.875 65.9375 74.125 67.375 74.125 68.25C74.125 69.0625 73.8438 69.875 73.2812 70.6875C72.7188 71.4375 71.9375 71.8125 70.9375 71.8125C69.9375 71.8125 68.9375 71.4375 67.9375 70.6875C66.9375 69.875 66.3125 68.9062 66.0625 67.7812C65.875 66.5938 65.6562 65.0625 65.4062 63.1875C65.2188 61.3125 64.9688 59.2188 64.6562 56.9062C64.3438 54.5312 64.0312 52.0625 63.7188 49.5C63.4062 46.875 63.0938 44.375 62.7812 42C62.4688 39.625 62.1875 37.5312 61.9375 35.7188C61.6875 33.8438 61.5 32.4375 61.375 31.5C61.375 30.25 61.3438 29.0938 61.2812 28.0312C61.2188 26.9688 60.9688 26.3125 60.5312 26.0625C60.0938 25.8125 59.4062 26.125 58.4688 27C57.5938 27.8125 56.3438 29.5 54.7188 32.0625C51.2188 37.5 46.1562 46.6562 39.5312 59.5312C38.6562 61.0938 37.5 61.4375 36.0625 60.5625C34.375 59.625 32.9375 57.2188 31.75 53.3438L14.5 16.6875C13 19.6875 11.625 29.625 10.375 46.5C10.1875 48.5625 10.0625 50.3125 10 51.75C9.6875 53.3125 9.53125 54.8438 9.53125 56.3438ZM99.0625 65.4375C104.562 65.4375 112.844 62.9375 123.906 57.9375C124.594 57.9375 125.156 58.1875 125.594 58.6875C126.031 59.125 126.25 59.6562 126.25 60.2812C123.75 64.5312 118.969 67.8438 111.906 70.2188C104.844 72.5938 98.25 73 92.125 71.4375C85.1875 69.625 80.9688 65.7188 79.4688 59.7188C79.3438 58.5312 79.2812 56.9375 79.2812 54.9375C79.2812 52.9375 79.7812 50.3125 80.7812 47.0625C81.8438 43.75 83.625 40.625 86.125 37.6875C88.625 34.75 91.5625 32.4375 94.9375 30.75C98.3125 29.0625 101.906 28.2188 105.719 28.2188C109.344 28.2188 113.406 29.4688 117.906 31.9688C120.031 33.1562 121.719 34.5 122.969 36C124.219 37.5 124.844 39.0312 124.844 40.5938C124.844 41.0312 124.812 41.4688 124.75 41.9062C124.625 45.7188 122.781 48.125 119.219 49.125C117.656 49.5625 115.844 49.7812 113.781 49.7812L100.281 49.2188C95.7812 49.2188 92.3438 50.1875 89.9688 52.125C88.5938 53.1875 87.625 54.7812 87.0625 56.9062C88.625 62.5938 92.625 65.4375 99.0625 65.4375ZM115.75 36.4688C114.375 35.4688 112.938 34.75 111.438 34.3125C109.938 33.875 108.688 33.6562 107.688 33.6562C106.688 33.6562 105.062 34 102.812 34.6875C100.562 35.3125 98.5625 36.0312 96.8125 36.8438C92.5 38.8438 90.3438 40.9375 90.3438 43.125C95.3438 43.5625 99.0938 43.7812 101.594 43.7812C108.531 43.7812 113.219 43.1875 115.656 42C117.156 41.375 117.906 40.5938 117.906 39.6562C117.906 38.5312 117.188 37.4688 115.75 36.4688ZM146.031 63L146.219 48C146.219 45.625 146 43.5938 145.562 41.9062H131.031L130.844 35.4375H144.906V11.25C145.094 10.6875 145.469 10.125 146.031 9.5625C146.906 8.6875 147.625 8.25 148.188 8.25C148.812 8.25 149.344 8.3125 149.781 8.4375C150.219 8.5625 150.688 9 151.188 9.75C152.188 13.875 152.688 20.0938 152.688 28.4062C152.688 30.4688 152.781 32.5 152.969 34.5C154.969 34.25 156.969 34.125 158.969 34.125C158.969 34.125 160.594 34.125 163.844 34.125C165.031 34.125 166.125 34.0625 167.125 33.9375L166.844 40.6875L153.156 40.3125L153.625 72.6562C152.5 73.1562 151.531 73.4062 150.719 73.4062C147.594 73.4062 146.031 69.9375 146.031 63ZM207.531 56.4375C202.844 63.8125 196.594 68.375 188.781 70.125C186.969 70.5 185.312 70.6875 183.812 70.6875C182.375 70.6875 181.156 70.6875 180.156 70.6875C179.219 70.625 178.156 70.4688 176.969 70.2188C175.781 69.9688 174.688 69.5625 173.688 69C171.375 67.6875 170.219 65.8438 170.219 63.4688C169.969 62.3438 169.844 61.0938 169.844 59.7188C169.844 58.2812 170.156 56.4062 170.781 54.0938C171.406 51.7812 172.531 49.2812 174.156 46.5938C175.844 43.9062 177.875 41.4375 180.25 39.1875C185.188 34.4375 190.531 31.375 196.281 30C197.969 29.625 199.5 29.4375 200.875 29.4375C202.312 29.4375 203.594 29.5312 204.719 29.7188C208.344 29.7188 210.781 32.1875 212.031 37.125C212.844 40.25 213.312 44.625 213.438 50.25C213.625 55.8125 213.781 60.125 213.906 63.1875C214.094 66.1875 214.5 68.9375 215.125 71.4375H209.594C209.344 69.75 209.156 68.25 209.031 66.9375C208.906 65.625 208.781 64.4062 208.656 63.2812C208.344 60.6562 207.969 58.375 207.531 56.4375ZM207.156 41.9062C207.156 38.2812 205.375 36.4688 201.812 36.4688C201.375 36.4062 200.938 36.375 200.5 36.375C195.938 36.375 191.125 38.5625 186.062 42.9375C183.688 44.9375 181.656 47.1875 179.969 49.6875C177.469 53.25 176.219 56.4375 176.219 59.25C176.219 62.9375 178.344 65.125 182.594 65.8125C188.219 65.6875 193.594 63.125 198.719 58.125C200.906 55.9375 202.719 53.5625 204.156 51C206.156 47.5625 207.156 44.5312 207.156 41.9062ZM288.531 56.4375C291.656 46.3125 295.281 27.8125 299.406 0.9375C303.344 0.9375 305.406 2.15625 305.594 4.59375C305.656 5.34375 305.688 5.875 305.688 6.1875C305.75 6.5 305.656 7.59375 305.406 9.46875C305.156 11.2812 304.781 13.8438 304.281 17.1562C303.844 20.4688 303.281 24.3125 302.594 28.6875C301.906 33.0625 301.125 37.625 300.25 42.375C298.125 53.5625 295.938 63 293.688 70.6875C291.438 72.25 289.688 72.5 288.438 71.4375C287.875 70.875 287.375 70.125 286.938 69.1875C286.5 68.1875 286 67.0625 285.438 65.8125C284.625 64.75 283.125 61.9375 280.938 57.375C278.75 52.8125 276.969 49.1875 275.594 46.5C274.281 43.8125 273 41.3125 271.75 39C268.875 33.8125 266.469 30.7812 264.531 29.9062C262.281 33.4062 258.281 43 252.531 58.6875C251.531 61.4375 250.625 64 249.812 66.375C249 68.6875 248.312 70.5625 247.75 72L241.938 71.7188L218.5 17.5312C218.375 17.2188 218.312 16.9062 218.312 16.5938C218.312 16.2812 218.406 15.9688 218.594 15.6562C218.844 15.3438 219.25 15.0625 219.812 14.8125C220.875 14.4375 221.938 14.25 223 14.25C224.062 14.25 224.812 14.4688 225.25 14.9062C225.75 15.2812 226.125 15.7812 226.375 16.4062C226.688 17.0312 226.938 17.7188 227.125 18.4688C227.312 19.2188 227.656 20.1875 228.156 21.375C228.719 22.5625 229.5 24.3125 230.5 26.625C231.562 28.9375 232.688 31.375 233.875 33.9375C235.062 36.5 236.25 39.0625 237.438 41.625C238.625 44.125 239.75 46.4375 240.812 48.5625C243.062 53.25 244.469 55.875 245.031 56.4375C252.281 38.5625 256.75 27.9688 258.438 24.6562C260.125 21.2812 261.188 19.2188 261.625 18.4688C262.312 17.4062 262.844 16.875 263.219 16.875C265.906 16.875 270.438 22.875 276.812 34.875C278.562 38.0625 280.188 41.125 281.688 44.0625C285.375 51.1875 287.656 55.3125 288.531 56.4375ZM328.938 65.4375C334.438 65.4375 342.719 62.9375 353.781 57.9375C354.469 57.9375 355.031 58.1875 355.469 58.6875C355.906 59.125 356.125 59.6562 356.125 60.2812C353.625 64.5312 348.844 67.8438 341.781 70.2188C334.719 72.5938 328.125 73 322 71.4375C315.062 69.625 310.844 65.7188 309.344 59.7188C309.219 58.5312 309.156 56.9375 309.156 54.9375C309.156 52.9375 309.656 50.3125 310.656 47.0625C311.719 43.75 313.5 40.625 316 37.6875C318.5 34.75 321.438 32.4375 324.812 30.75C328.188 29.0625 331.781 28.2188 335.594 28.2188C339.219 28.2188 343.281 29.4688 347.781 31.9688C349.906 33.1562 351.594 34.5 352.844 36C354.094 37.5 354.719 39.0312 354.719 40.5938C354.719 41.0312 354.688 41.4688 354.625 41.9062C354.5 45.7188 352.656 48.125 349.094 49.125C347.531 49.5625 345.719 49.7812 343.656 49.7812L330.156 49.2188C325.656 49.2188 322.219 50.1875 319.844 52.125C318.469 53.1875 317.5 54.7812 316.938 56.9062C318.5 62.5938 322.5 65.4375 328.938 65.4375ZM345.625 36.4688C344.25 35.4688 342.812 34.75 341.312 34.3125C339.812 33.875 338.562 33.6562 337.562 33.6562C336.562 33.6562 334.938 34 332.688 34.6875C330.438 35.3125 328.438 36.0312 326.688 36.8438C322.375 38.8438 320.219 40.9375 320.219 43.125C325.219 43.5625 328.969 43.7812 331.469 43.7812C338.406 43.7812 343.094 43.1875 345.531 42C347.031 41.375 347.781 40.5938 347.781 39.6562C347.781 38.5312 347.062 37.4688 345.625 36.4688ZM362.312 17.625L362.031 5.53125C362.031 4.53125 362.375 3.75 363.062 3.1875C363.75 2.625 364.594 2.34375 365.594 2.34375C366.594 2.34375 367.5 2.625 368.312 3.1875C369.125 3.6875 369.438 4.40625 369.25 5.34375L369.906 45.8438C373.844 40.5938 379.156 36.1875 385.844 32.625C391.406 29.625 396.281 28.125 400.469 28.125C404.156 28.125 407 29.3125 409 31.6875C410.5 33.5625 411.25 36.0625 411.25 39.1875C411.25 42.25 410.656 44.9375 409.469 47.25C408.344 49.5 406.844 51.6875 404.969 53.8125C403.094 55.875 400.938 57.8125 398.5 59.625C396.062 61.4375 393.594 63.0625 391.094 64.5C386.344 67.25 381.656 69.5312 377.031 71.3438C376.656 71.2188 376.031 71.1875 375.156 71.25C374.281 71.3125 373.219 71.3438 371.969 71.3438C368.594 71.3438 365.625 70.9375 363.062 70.125C362.438 64.1875 362.125 55.1562 362.125 43.0312L362.312 17.625ZM370.188 63.6562C370.188 64.3438 370.812 64.6875 372.062 64.6875C373.375 64.6875 374.969 64.4375 376.844 63.9375C378.719 63.4375 380.969 62.5938 383.594 61.4062C386.281 60.1562 388.969 58.5625 391.656 56.625C397.906 52.1875 402.625 46.9688 405.812 40.9688C405 37.4062 402.562 35.625 398.5 35.625C394.812 35.625 390.656 37 386.031 39.75C379.469 43.6875 374.781 48.5625 371.969 54.375C370.781 56.6875 370.188 59.0312 370.188 61.4062C370.188 62.0312 370.188 62.5312 370.188 62.9062C370.188 63.2812 370.188 63.5312 370.188 63.6562ZM458.312 24.4688C458.312 28.2188 455.312 32.625 449.312 37.6875C447.812 38.875 446.531 39.9375 445.469 40.875C453.156 41 457.75 42.8125 459.25 46.3125C459.562 47.125 459.719 47.9688 459.719 48.8438C459.719 49.7188 459.469 50.9062 458.969 52.4062C458.531 53.8438 457.562 55.5625 456.062 57.5625C454.562 59.5625 452.75 61.5 450.625 63.375C446.188 67.25 441.5 69.9375 436.562 71.4375C434.875 71.9375 433.5 72.1875 432.438 72.1875C431.438 72.1875 430.625 72.1562 430 72.0938C429.375 72.0938 428.719 71.9062 428.031 71.5312C427.344 71.1562 427 70.5312 427 69.6562C431.688 68.4688 435.812 66.7812 439.375 64.5938C442.938 62.4062 445.75 60.125 447.812 57.75C450.25 54.8125 451.469 52.375 451.469 50.4375C451.469 48.5 450.875 47.1875 449.688 46.5C448.5 45.8125 446.969 45.4688 445.094 45.4688C440.344 45.4688 433.875 47.4062 425.688 51.2812L422.406 47.0625C441.344 38.3125 450.812 32.0312 450.812 28.2188C450.812 26.5938 449.031 25.5312 445.469 25.0312C441.781 25.0312 437.562 25.6562 432.812 26.9062C428.125 28.1562 424.5 29.0625 421.938 29.625C419.375 30.1875 416.75 30.4688 414.062 30.4688C414.062 27.5312 414.781 25.8125 416.219 25.3125C418.844 24.6875 421.625 24 424.562 23.25C434.188 20.8125 441.875 19.5938 447.625 19.5938C453.438 19.5938 457 21.2188 458.312 24.4688Z" fill="white"/>
</svg>
